<svg xmlns="http://www.w3.org/2000/svg" viewBox="0 0 75.52 63.72"><defs><style>.cls-1{fill:#363636;}.cls-1,.cls-2,.cls-3{stroke:#363636;stroke-miterlimit:10;}.cls-2{fill:#fff;}.cls-3{fill:none;}</style></defs><g id="Layer_2" data-name="Layer 2"><g id="drawings"><path class="cls-1" d="M8.32,19a30.28,30.28,0,0,1,2.4-2.78c3.5-3.32,8.75-3.73,13.3-5.34,4.26-1.51,8-4.13,11.86-6.5a5,5,0,0,1,2.2-.89,5.08,5.08,0,0,1,2,.37c3.81,1.28,7.59,2.68,11.31,4.19a40.23,40.23,0,0,1,10,5.35,45,45,0,0,1,5.69,5.78c2.3,2.63,4.7,5.49,5.13,9,.37,3-.8,6.05-.3,9,.31,1.84,1.25,3.6,1.09,5.46a8.54,8.54,0,0,1-1.5,3.67C65.1,56.48,53.56,63.89,41.55,63.18a9.44,9.44,0,0,1-2.84-.52,19.27,19.27,0,0,1-3-1.74A13.47,13.47,0,0,0,30,59.06c-3.35-.32-7,.57-9.9-1.16a11.44,11.44,0,0,1-2.65-2.41,105,105,0,0,1-14-20.12C2.21,33-.34,29.38.78,26.5S6.28,21.46,8.32,19Z"/><path class="cls-2" d="M10.32,16a30.28,30.28,0,0,1,2.4-2.78C16.22,9.92,21.47,9.51,26,7.9c4.26-1.51,8-4.13,11.86-6.5a5,5,0,0,1,2.2-.89,5.08,5.08,0,0,1,2,.37c3.81,1.28,7.59,2.68,11.31,4.19a40.23,40.23,0,0,1,10,5.35,45,45,0,0,1,5.69,5.78c2.3,2.63,4.7,5.49,5.13,9,.37,3-.8,6.05-.3,9,.31,1.84,1.25,3.6,1.09,5.46a8.54,8.54,0,0,1-1.5,3.67C67.1,53.48,55.56,60.89,43.55,60.18a9.44,9.44,0,0,1-2.84-.52,19.27,19.27,0,0,1-3-1.74A13.47,13.47,0,0,0,32,56.06c-3.35-.32-7,.57-9.9-1.16a11.44,11.44,0,0,1-2.65-2.41,105,105,0,0,1-14-20.12c-1.29-2.41-3.84-6-2.72-8.87S8.28,18.46,10.32,16Z"/><rect class="cls-3" x="11.49" y="19.45" width="4" height="4"/><rect class="cls-3" x="40.49" y="8.45" width="3" height="3"/><rect class="cls-3" x="55.49" y="23.45" width="4" height="4"/><rect class="cls-3" x="25.49" y="30.45" width="4" height="4"/><rect class="cls-3" x="23.49" y="48.45" width="3" height="3"/><rect class="cls-3" x="46.49" y="48.45" width="3" height="3"/></g></g></svg>