<svg xmlns="http://www.w3.org/2000/svg" viewBox="0 0 65.53 59.46"><defs><style>.cls-1{fill:#363636;}.cls-1,.cls-2,.cls-3{stroke:#363636;stroke-miterlimit:10;}.cls-2{fill:#fff;}.cls-3{fill:none;}</style></defs><g id="Layer_2" data-name="Layer 2"><g id="drawings"><path class="cls-1" d="M59.14,43.9a205.64,205.64,0,0,1-24,12.89A12.89,12.89,0,0,1,31,58.11c-1.31.12-2.7-.16-3.92.35a4.2,4.2,0,0,1-1.37.5c-.77,0-1.37-.62-1.94-1.14a8.14,8.14,0,0,0-6.08-2.09c-1.19.09-2.62.36-3.39-.55a3.62,3.62,0,0,1-.58-1.4,9.88,9.88,0,0,0-5.13-6.14,36.7,36.7,0,0,1-4.44-2A8.47,8.47,0,0,1,.86,40.36,24.84,24.84,0,0,1,.57,34l.14-3.64C.84,27,1,23.6,2.2,20.5s3.73-5.9,7-6.54a20.9,20.9,0,0,0,3.55-.61c2-.74,3.09-2.73,4.47-4.29,2.92-3.29,7.32-4.92,11.69-5.43a11.58,11.58,0,0,1,4.94.29c2,.64,3.6,2.1,5.57,2.77,1.76.59,3.73.53,5.36,1.41A16.18,16.18,0,0,1,47.29,10a33.45,33.45,0,0,0,5,3.06,30.58,30.58,0,0,1,7.24,5.19,13.16,13.16,0,0,1,3.88,7.85c.18,2.2-.36,4.38-.2,6.58.1,1.33.65,2.53.82,3.83C64.42,40,61.8,42.23,59.14,43.9Z"/><path class="cls-2" d="M60.14,40.9a205.64,205.64,0,0,1-24,12.89A12.89,12.89,0,0,1,32,55.11c-1.31.12-2.7-.16-3.92.35a4.2,4.2,0,0,1-1.37.5c-.77,0-1.37-.62-1.94-1.14a8.14,8.14,0,0,0-6.08-2.09c-1.19.09-2.62.36-3.39-.55a3.62,3.62,0,0,1-.58-1.4,9.88,9.88,0,0,0-5.13-6.14,36.7,36.7,0,0,1-4.44-2,8.47,8.47,0,0,1-3.29-5.32A24.84,24.84,0,0,1,1.57,31l.14-3.64C1.84,24,2,20.6,3.2,17.5s3.73-5.9,7-6.54a20.9,20.9,0,0,0,3.55-.61c2-.74,3.09-2.73,4.47-4.29C21.14,2.77,25.54,1.14,29.91.63a11.58,11.58,0,0,1,4.94.29c2,.64,3.6,2.1,5.57,2.77,1.76.59,3.73.53,5.36,1.41A16.18,16.18,0,0,1,48.29,7a33.45,33.45,0,0,0,5,3.06,30.58,30.58,0,0,1,7.24,5.19,13.16,13.16,0,0,1,3.88,7.85c.18,2.2-.36,4.38-.2,6.58.1,1.33.65,2.53.82,3.83C65.42,37,62.8,39.23,60.14,40.9Z"/><rect class="cls-3" x="21.96" y="11.03" width="4" height="3"/><rect class="cls-3" x="15.96" y="21.03" width="3" height="3"/><rect class="cls-3" x="17.96" y="37.03" width="3" height="3"/><rect class="cls-3" x="3.96" y="33.03" width="3" height="3"/><rect class="cls-3" x="40.96" y="22.03" width="3" height="3"/><rect class="cls-3" x="56.96" y="28.03" width="3" height="3"/><rect class="cls-3" x="43.96" y="42.03" width="3" height="3"/></g></g></svg>