<svg xmlns="http://www.w3.org/2000/svg" viewBox="0 0 44.14 35.77"><defs><style>.cls-1{fill:#363636;}.cls-1,.cls-2,.cls-3{stroke:#363636;stroke-miterlimit:10;}.cls-2{fill:#fff;}.cls-3{fill:none;}</style></defs><g id="Layer_2" data-name="Layer 2"><g id="drawings"><path class="cls-1" d="M31,10l10.61,7.63a2.73,2.73,0,0,1,.91.91,2.71,2.71,0,0,1,.16,1.33,29.37,29.37,0,0,1-1.1,6.24A3.14,3.14,0,0,1,41,27.36a3.39,3.39,0,0,1-1.46.81,34.45,34.45,0,0,0-9.34,5.13,8.29,8.29,0,0,1-3.39,1.92c-3.48.6-6.18-3.82-9.7-3.62-.9,0-1.76.41-2.65.46a5.54,5.54,0,0,1-4-1.82A28,28,0,0,1,7.63,26.6a26,26,0,0,0-6.21-6.18,1.88,1.88,0,0,1-.88-1c-.27-1,1-1.6,1.82-2.23,1.71-1.33,1.69-3.91,2.78-5.78s3.4-3,5.52-3.83l7.15-2.95A12.19,12.19,0,0,1,22,3.5c2,0,3,1,4.19,2.37A26.87,26.87,0,0,0,31,10Z"/><path class="cls-2" d="M32,7l10.61,7.63a2.73,2.73,0,0,1,.91.91,2.71,2.71,0,0,1,.16,1.33,29.37,29.37,0,0,1-1.1,6.24A3.14,3.14,0,0,1,42,24.36a3.39,3.39,0,0,1-1.46.81,34.45,34.45,0,0,0-9.34,5.13,8.29,8.29,0,0,1-3.39,1.92c-3.48.6-6.18-3.82-9.7-3.62-.9,0-1.76.41-2.65.46a5.54,5.54,0,0,1-4-1.82A28,28,0,0,1,8.63,23.6a26,26,0,0,0-6.21-6.18,1.88,1.88,0,0,1-.88-1c-.27-1,1-1.6,1.82-2.23,1.71-1.33,1.69-3.91,2.78-5.78s3.4-3,5.52-3.83l7.15-2.95A12.19,12.19,0,0,1,23,.5c2,0,3,1,4.19,2.37A26.87,26.87,0,0,0,32,7Z"/><rect class="cls-3" x="22.98" y="8.56" width="3" height="3"/><rect class="cls-3" x="34.98" y="19.56" width="3" height="3"/><rect class="cls-3" x="13.98" y="21.56" width="3" height="3"/><rect class="cls-3" x="8.98" y="8.56" width="2" height="2"/></g></g></svg>