<svg xmlns="http://www.w3.org/2000/svg" viewBox="0 0 63.91 61.89"><defs><style>.cls-1{fill:#363636;}.cls-1,.cls-2,.cls-3{stroke:#363636;stroke-miterlimit:10;}.cls-2{fill:#fff;}.cls-3{fill:none;}</style></defs><g id="Layer_2" data-name="Layer 2"><g id="drawings"><path class="cls-1" d="M4.45,14.17A17.79,17.79,0,0,1,22.37,4.63c7.19.93,13.12,6,19.94,8.46,2.1.76,4.27,1.26,6.41,1.91a7.82,7.82,0,0,1,2.71,1.26,8.6,8.6,0,0,1,2.19,3.42l6.75,15.53a8.43,8.43,0,0,1,.88,3c0,1.06-.34,2.11-.21,3.16a16.12,16.12,0,0,1,.37,2.15c0,1.59-1.56,2.66-2.56,3.89s-1.68,3.17-3,4.31c-2.55,2.16-6.52,1-9.67,2.07-1.95.69-3.49,2.24-5.39,3.06-3.73,1.61-8.62.37-11.6,3.13a5,5,0,0,1-1.68,1.33,3.66,3.66,0,0,1-2.67-.65C19.75,58,14.05,56.92,8.57,55.29c-1.4-.42-2.91-1-3.69-2.19a6.35,6.35,0,0,1-.74-2.21c-.75-3.67-1.45-7.35-2.23-11-.49-2.29-1.48-4.64-1.41-7,.09-2.95,1.14-6.07,1.57-9C2.54,20.56,3,17.21,4.45,14.17Z"/><path class="cls-2" d="M6.45,10.17A17.79,17.79,0,0,1,24.37.63c7.19.93,13.12,6,19.94,8.46,2.1.76,4.27,1.26,6.41,1.91a7.82,7.82,0,0,1,2.71,1.26,8.6,8.6,0,0,1,2.19,3.42l6.75,15.53a8.43,8.43,0,0,1,.88,3c0,1.06-.34,2.11-.21,3.16a16.12,16.12,0,0,1,.37,2.15c0,1.59-1.56,2.66-2.56,3.89s-1.68,3.17-3,4.31c-2.55,2.16-6.52,1-9.67,2.07-1.95.69-3.49,2.24-5.39,3.06-3.73,1.61-8.62.37-11.6,3.13a5,5,0,0,1-1.68,1.33,3.66,3.66,0,0,1-2.67-.65C21.75,54,16.05,52.92,10.57,51.29c-1.4-.42-2.91-1-3.69-2.19a6.35,6.35,0,0,1-.74-2.21c-.75-3.67-1.45-7.35-2.23-11-.49-2.29-1.48-4.64-1.41-7,.09-2.95,1.14-6.07,1.57-9C4.54,16.56,5,13.21,6.45,10.17Z"/><rect class="cls-3" x="6.73" y="33.67" width="4" height="4"/><rect class="cls-3" x="22.73" y="22.67" width="4" height="3"/><rect class="cls-3" x="29.73" y="11.67" width="3" height="3"/><rect class="cls-3" x="41.73" y="29.67" width="3" height="3"/><rect class="cls-3" x="53.73" y="24.67" width="3" height="3"/><rect class="cls-3" x="43.73" y="45.67" width="4" height="4"/><rect class="cls-3" x="26.73" y="46.67" width="3" height="3"/><rect class="cls-3" x="11.73" y="6.67" width="3" height="3"/></g></g></svg>