<svg xmlns="http://www.w3.org/2000/svg" viewBox="0 0 87.97 65.93"><defs><style>.cls-1{fill:#363636;}.cls-1,.cls-2,.cls-3{stroke:#363636;stroke-miterlimit:10;}.cls-2{fill:#fff;}.cls-3{fill:none;}</style></defs><g id="Layer_2" data-name="Layer 2"><g id="drawings"><path class="cls-1" d="M80.39,46.61c-3.6,2.67-7.82,4.46-11.22,7.39-1.53,1.31-2.87,2.84-4.52,4a23.89,23.89,0,0,1-8.6,3.32,162.59,162.59,0,0,1-27.95,4,25.1,25.1,0,0,1-7.79-.43A27.6,27.6,0,0,1,13,61.31C7,57.61.2,52.56.51,45.52.65,42.29,2.33,39.37,4,36.58L14.35,18.86a7.28,7.28,0,0,1,2-2.52,8.91,8.91,0,0,1,3.12-1c5.85-1.23,10.86-4.85,16-7.92s11-5.72,16.92-4.71c4.28.73,8,3.31,11.53,5.82,4.33,3.06,8.74,6.2,11.81,10.52s7.37,10,9.85,14.71C88.2,38.7,84.43,43.6,80.39,46.61Z"/><path class="cls-2" d="M81.39,44.61c-3.6,2.67-7.82,4.46-11.22,7.39-1.53,1.31-2.87,2.84-4.52,4a23.89,23.89,0,0,1-8.6,3.32,162.59,162.59,0,0,1-27.95,4,25.1,25.1,0,0,1-7.79-.43A27.6,27.6,0,0,1,14,59.31C8,55.61,1.2,50.56,1.51,43.52c.14-3.23,1.82-6.15,3.45-8.94L15.35,16.86a7.28,7.28,0,0,1,2-2.52,8.91,8.91,0,0,1,3.12-1c5.85-1.23,10.86-4.85,16-7.92S47.53-.29,53.43.72c4.28.73,8,3.31,11.53,5.82,4.33,3.06,8.74,6.2,11.81,10.52s7.37,10,9.85,14.71C89.2,36.7,85.43,41.6,81.39,44.61Z"/><rect class="cls-3" x="35.82" y="18.5" width="4" height="4"/><rect class="cls-3" x="63.82" y="31.5" width="3" height="3"/><rect class="cls-3" x="78.82" y="37.5" width="3" height="3"/><rect class="cls-3" x="50.82" y="49.5" width="3" height="3"/><rect class="cls-3" x="30.82" y="38.5" width="3" height="3"/><rect class="cls-3" x="13.82" y="49.5" width="3" height="3"/><rect class="cls-3" x="14.82" y="24.5" width="3" height="3"/><rect class="cls-3" x="57.82" y="9.5" width="3" height="3"/></g></g></svg>